<?xml version="1.0" standalone="no"?>
<!DOCTYPE svg PUBLIC "-//W3C//DTD SVG 20010904//EN"
 "http://www.w3.org/TR/2001/REC-SVG-20010904/DTD/svg10.dtd">
<svg version="1.0" xmlns="http://www.w3.org/2000/svg"
 width="100.000000pt" height="100.000000pt" viewBox="0 0 100.000000 100.000000"
 preserveAspectRatio="xMidYMid meet">

<g transform="translate(0.000000,100.000000) scale(0.100000,-0.100000)"
fill="#000000" stroke="none">
<path d="M200 500 l0 -380 205 0 205 0 0 55 0 55 -150 0 -150 0 0 325 0 325
-55 0 -55 0 0 -380z"/>
<path d="M340 715 l0 -164 116 -3 116 -3 54 -145 c30 -80 66 -175 80 -212 l26
-68 54 0 c30 0 54 2 54 5 0 3 -59 162 -131 353 -72 191 -136 359 -141 375
l-10 27 -109 0 -109 0 0 -165z"/>
<path d="M344 436 c-3 -7 -4 -33 -2 -57 l3 -44 124 -3 123 -3 -6 24 c-3 13
-12 40 -21 60 l-15 37 -100 0 c-77 0 -102 -3 -106 -14z"/>
</g>
</svg>
